# xmcd
#
# Track frame offsets:
#	150
#	15255
#	29817
#	47249
#	62795
#	77998
#	95512
#	111448
#	131590
#	150858
#
# Disc length: 2302 seconds
#
# Revision: 0
# Processed by: cddbd v1.5.1PL0 Copyright (c) Steve Scherf et al.
# Submitted via: dBpowerAMP V4.0
#
DISCID=7e08fc0a
DTITLE=Brad Cotter - Patient Man
DYEAR=2004
DGENRE=
TTITLE0=I Meant To
TTITLE1=Can't Tell Me Nothin
TTITLE2=Patient Man
TTITLE3=I Miss Me
TTITLE4=High On Love
TTITLE5=Rock And Roll In The Hay
TTITLE6=Hard To Be a Rock
TTITLE7=I Came Here To Live
TTITLE8=Blue Collar Night
TTITLE9=I've Got Time
EXTD=
EXTT0=
EXTT1=
EXTT2=
EXTT3=
EXTT4=
EXTT5=
EXTT6=
EXTT7=
EXTT8=
EXTT9=
PLAYORDER=
